<svg width="157" height="108" viewBox="0 0 157 108" fill="none" xmlns="http://www.w3.org/2000/svg">
<path d="M104.994 44.1797L155.85 44.2622C155.85 53.4826 146.125 61.9813 141.2 65.1012L104.994 44.1797Z" stroke="black" stroke-width="1.5" stroke-linecap="round" stroke-linejoin="round"/>
<path d="M104.993 44.1793L104.985 85.7137L141.073 106.58L141.192 65.1047L104.993 44.1793Z" stroke="black" stroke-width="1.5" stroke-linecap="round" stroke-linejoin="round"/>
<path d="M104.991 58.8366L141.173 79.6535" stroke="black" stroke-width="1.5" stroke-linecap="round" stroke-linejoin="round"/>
<path d="M104.983 71.7092L141.119 92.3237" stroke="black" stroke-width="1.5" stroke-linecap="round" stroke-linejoin="round"/>
<path d="M141.172 79.6256C150.13 73.5344 153.284 69.3301 155.767 60.6411" stroke="black" stroke-width="1.5" stroke-linecap="round" stroke-linejoin="round"/>
<path d="M141.116 92.308C149.428 86.6045 152.984 82.4378 155.813 73.614" stroke="black" stroke-width="1.5" stroke-linecap="round" stroke-linejoin="round"/>
<path d="M141.082 106.58C151.589 100.805 155.3 90.5664 155.812 86.1885L155.858 44.2259" stroke="black" stroke-width="1.5" stroke-linecap="round" stroke-linejoin="round"/>
<ellipse cx="111.425" cy="69.2507" rx="2.04285" ry="2.34796" fill="black"/>
<ellipse cx="123.045" cy="75.9344" rx="2.04285" ry="2.34796" fill="black"/>
<ellipse cx="134.666" cy="82.6181" rx="2.04285" ry="2.34796" fill="black"/>
<path d="M54.9828 35.5413L19.1584 56.4189C34.8685 64.4269 46.9279 65.1987 55.1424 65.0093L54.9828 35.5413Z" stroke="black" stroke-width="1.5" stroke-linecap="round" stroke-linejoin="round"/>
<path d="M58.5288 35.5798L58.5975 64.9671C74.4113 65.2599 89.2079 59.421 94.5768 56.4054L58.5288 35.5798Z" stroke="black" stroke-width="1.5" stroke-linecap="round" stroke-linejoin="round"/>
<path d="M52.4102 34.0631H1.58032C3.25375 45.6097 12.3529 52.7495 16.6933 54.8762L52.4102 34.0631Z" stroke="black" stroke-width="1.5" stroke-linecap="round" stroke-linejoin="round"/>
<path d="M52.1527 32.022L16.4837 11.2626C4.43516 18.7093 1.5624 28.171 1.63209 31.971L52.1527 32.022Z" stroke="black" stroke-width="1.5" stroke-linecap="round" stroke-linejoin="round"/>
<path d="M54.8405 30.3717L54.867 1.11786C34.2423 1.61989 22.2878 7.07939 18.8887 9.74639L54.8405 30.3717Z" stroke="black" stroke-width="1.5" stroke-linecap="round" stroke-linejoin="round"/>
<path d="M18.8765 9.83228V12.5298" stroke="black" stroke-width="1.5" stroke-linecap="round" stroke-linejoin="round"/>
<path d="M58.6451 30.7709L94.5574 9.71701C79.9533 2.16743 64.39 0.795714 58.4338 1.05356L58.6451 30.7709Z" stroke="black" stroke-width="1.5" stroke-linecap="round" stroke-linejoin="round"/>
<path d="M60.9087 31.9943L111.884 31.917C110.708 21.3352 101.338 13.7392 96.8002 11.2639L60.9087 31.9943Z" stroke="black" stroke-width="1.5" stroke-linecap="round" stroke-linejoin="round"/>
<path d="M58.5974 64.9757L58.6986 106.6C75.0366 106.524 89.447 100.756 94.6099 97.881L94.5693 56.4124" stroke="black" stroke-width="1.5" stroke-linecap="round" stroke-linejoin="round"/>
<path d="M19.1455 56.4241L19.083 97.8615C31.8857 103.919 39.7647 105.853 55.1349 106.503L55.1416 65.1391" stroke="black" stroke-width="1.5" stroke-linecap="round" stroke-linejoin="round"/>
<path d="M1.57935 34.0661L1.59288 75.7403C2.67568 84.001 5.61132 88.5413 16.5576 96.4149L16.6902 54.8818" stroke="black" stroke-width="1.5" stroke-linecap="round" stroke-linejoin="round"/>
<path d="M94.5915 73.4401H104.98" stroke="black" stroke-width="1.5" stroke-linecap="round" stroke-linejoin="round"/>
<path d="M1.63186 31.9732L1.57935 34.0582" stroke="black" stroke-width="1.5" stroke-linecap="round" stroke-linejoin="round"/>
<path d="M54.8379 30.3794L54.8235 35.6313" stroke="black" stroke-width="1.5" stroke-linecap="round" stroke-linejoin="round"/>
<path d="M52.4151 34.0573L52.415 37.035M52.1316 32.0224L52.1316 34.0578" stroke="black" stroke-width="1.5" stroke-linecap="round" stroke-linejoin="round"/>
<path d="M60.9087 32.0001L60.9087 36.9483" stroke="black" stroke-width="1.5" stroke-linecap="round" stroke-linejoin="round"/>
<path d="M94.5833 71.0517C89.6491 73.8358 75.4961 79.4397 58.626 79.6382" stroke="black" stroke-width="1.5" stroke-linecap="round" stroke-linejoin="round"/>
<path d="M94.5393 83.8044C89.2467 86.5609 74.6118 92.1073 58.6679 92.2396" stroke="black" stroke-width="1.5" stroke-linecap="round" stroke-linejoin="round"/>
<path d="M19.1194 70.967C24.5522 73.8895 39.5795 79.8205 55.1363 79.6406" stroke="black" stroke-width="1.5" stroke-linecap="round" stroke-linejoin="round"/>
<path d="M55.1261 92.3034C48.794 92.3034 32.6817 90.5776 19.1033 83.6985" stroke="black" stroke-width="1.5" stroke-linecap="round" stroke-linejoin="round"/>
<path d="M1.58936 49.9261C2.37617 54.235 6.56794 64.6697 16.6393 69.3907" stroke="black" stroke-width="1.5" stroke-linecap="round" stroke-linejoin="round"/>
<path d="M16.6022 81.9604C6.10243 75.1162 3.93023 71.1992 1.57939 63.0125" stroke="black" stroke-width="1.5" stroke-linecap="round" stroke-linejoin="round"/>
<path d="M78.2742 46.79L104.994 46.79" stroke="black" stroke-width="1.5" stroke-linecap="round" stroke-linejoin="round"/>
<path d="M94.6424 59.2062H104.986" stroke="black" stroke-width="1.5" stroke-linecap="round" stroke-linejoin="round"/>
<path d="M58.6501 30.7653V35.6149" stroke="black" stroke-width="1.5" stroke-linecap="round" stroke-linejoin="round"/>
<path d="M94.5579 9.72638V12.5587" stroke="black" stroke-width="1.5" stroke-linecap="round" stroke-linejoin="round"/>
<path d="M111.877 31.9031V44.1925" stroke="black" stroke-width="1.5" stroke-linecap="round" stroke-linejoin="round"/>
</svg>
