<svg width="54" height="65" viewBox="0 0 54 65" fill="none" xmlns="http://www.w3.org/2000/svg">
<path d="M1.75193 1.51166L52.6079 1.59413C52.6079 10.8145 42.8822 19.3132 37.9575 22.4331L1.75193 1.51166Z" stroke="black" stroke-width="1.5" stroke-linecap="round" stroke-linejoin="round"/>
<path d="M1.75049 1.51123L1.74194 43.0456L37.8303 63.912L37.9496 22.4367L1.75049 1.51123Z" stroke="black" stroke-width="1.5" stroke-linecap="round" stroke-linejoin="round"/>
<path d="M1.74783 16.1687L37.9295 36.9856" stroke="black" stroke-width="1.5" stroke-linecap="round" stroke-linejoin="round"/>
<path d="M1.73948 29.041L37.875 49.6555" stroke="black" stroke-width="1.5" stroke-linecap="round" stroke-linejoin="round"/>
<path d="M37.929 36.9575C46.8873 30.8664 50.0412 26.662 52.524 17.973" stroke="black" stroke-width="1.5" stroke-linecap="round" stroke-linejoin="round"/>
<path d="M37.8735 49.6398C46.1856 43.9363 49.7414 39.7696 52.571 30.9458" stroke="black" stroke-width="1.5" stroke-linecap="round" stroke-linejoin="round"/>
<path d="M37.8396 63.9119C48.3466 58.1368 52.0572 47.8982 52.5695 43.5203L52.616 1.55768" stroke="black" stroke-width="1.5" stroke-linecap="round" stroke-linejoin="round"/>
<ellipse cx="7.99011" cy="26.3242" rx="2.04285" ry="2.34796" fill="black"/>
<ellipse cx="19.5985" cy="32.9258" rx="2.04285" ry="2.34796" fill="black"/>
<ellipse cx="31.2072" cy="39.5275" rx="2.04285" ry="2.34796" fill="black"/>
</svg>
